# xmcd
#
# Track frame offsets: 
#        150
#        16411
#        31086
#        50840
#        78382
#        97055
#        118247
#        138871
#        171680
#        192442
#        205696
#        228600
#
# Disc length: 3249 seconds
#
# Revision: 0
# Processed by: cddbd v1.5.2PL0 Copyright (c) Steve Scherf et al.
# Submitted via: ExactAudioCopy v1.0b2
#
DISCID=ab0caf0c
DTITLE=Bananafishbones - 12 Songs in one day
DYEAR=2011
DGENRE=
TTITLE0=Don't you dare
TTITLE1=Stunt of your life
TTITLE2=I love country music
TTITLE3=Rosaly
TTITLE4=Black dog
TTITLE5=Joescene
TTITLE6=Snowman
TTITLE7=Weedy Bong
TTITLE8=Babysitter
TTITLE9=No dogs in here
TTITLE10=Jackpot
TTITLE11=Magic
EXTD=
EXTT0=
EXTT1=
EXTT2=
EXTT3=
EXTT4=
EXTT5=
EXTT6=
EXTT7=
EXTT8=
EXTT9=
EXTT10=
EXTT11=
PLAYORDER=
